<svg width="116" height="141" viewBox="0 0 116 141" fill="none" xmlns="http://www.w3.org/2000/svg">
<path fill-rule="evenodd" clip-rule="evenodd" d="M34.8438 25.5351C34.8438 21.8185 37.8566 18.8057 41.5731 18.8057C49.3299 18.8057 56.5677 21.0258 62.686 24.8596C66.8955 23.1263 71.5069 22.1704 76.3417 22.1704C96.1632 22.1704 112.232 38.2389 112.232 58.0605C112.232 61.777 109.219 64.7899 105.502 64.7899C101.786 64.7899 98.773 61.777 98.773 58.0605C98.773 45.672 88.7302 35.6292 76.3417 35.6292C75.6045 35.6292 74.8756 35.6647 74.1567 35.7342C74.2043 35.802 74.2518 35.8699 74.299 35.9379C78.5995 42.1327 81.188 49.613 81.3775 57.6691C81.385 57.7986 81.3887 57.9291 81.3887 58.0605C81.3887 58.1387 81.3883 58.2168 81.3874 58.2948C81.3883 58.4035 81.3887 58.5123 81.3887 58.6213C81.3887 58.8745 81.3747 59.1246 81.3475 59.3706C80.6719 70.0646 71.7845 78.529 60.9202 78.529C49.6157 78.529 40.4516 69.365 40.4516 58.0605C40.4516 48.6329 44.0865 40.0544 50.0314 33.6499C47.376 32.7511 44.5313 32.2645 41.5731 32.2645C37.8566 32.2645 34.8438 29.2516 34.8438 25.5351ZM61.4371 41.2966C56.8192 45.4052 53.9104 51.3931 53.9104 58.0605C53.9104 61.9319 57.0488 65.0703 60.9202 65.0703C64.7279 65.0703 67.8265 62.0343 67.9274 58.2509C67.8527 52.8054 66.1332 47.7761 63.2432 43.6131C62.6835 42.8068 62.0803 42.0335 61.4371 41.2966Z" fill="#3CA4DC"/>
<path fill-rule="evenodd" clip-rule="evenodd" d="M41.5812 32.2645C27.0248 32.2645 15.2244 44.0648 15.2244 58.6213C15.2244 69.2626 21.5311 78.4452 30.6395 82.6084C34.0197 84.1534 35.5074 88.1461 33.9624 91.5263C32.4174 94.9065 28.4247 96.3942 25.0446 94.8492C11.3226 88.5772 1.76562 74.7224 1.76562 58.6213C1.76562 36.6317 19.5917 18.8057 41.5812 18.8057C55.149 18.8057 67.1291 25.5983 74.3071 35.9379C76.4265 38.9909 75.6697 43.184 72.6167 45.3034C69.5638 47.4228 65.3707 46.666 63.2513 43.6131C58.4806 36.7411 50.5531 32.2645 41.5812 32.2645Z" fill="#1F63DD"/>
<g clip-path="url(#clip0_222_29305)">
<path d="M0.96532 130.631C1.20782 130.118 1.59021 129.693 2.11251 129.358C2.64414 129.013 3.2737 128.84 4.00118 128.84C4.69136 128.84 5.31159 129.003 5.86187 129.33C6.42148 129.647 6.85517 130.104 7.16296 130.701C7.48007 131.288 7.63862 131.974 7.63862 132.757C7.63862 133.541 7.48007 134.231 7.16296 134.828C6.85517 135.425 6.42148 135.886 5.86187 136.213C5.31159 136.539 4.69136 136.702 4.00118 136.702C3.28302 136.702 2.65813 136.535 2.1265 136.199C1.59488 135.854 1.20782 135.425 0.96532 134.912V140.2H0V128.952H0.96532V130.631ZM6.64532 132.757C6.64532 132.123 6.51941 131.577 6.26759 131.12C6.02509 130.654 5.68933 130.3 5.2603 130.057C4.83126 129.815 4.34627 129.693 3.80532 129.693C3.28302 129.693 2.80269 129.819 2.36434 130.071C1.9353 130.323 1.59488 130.682 1.34305 131.148C1.09123 131.615 0.96532 132.156 0.96532 132.771C0.96532 133.387 1.09123 133.928 1.34305 134.394C1.59488 134.86 1.9353 135.22 2.36434 135.471C2.80269 135.723 3.28302 135.849 3.80532 135.849C4.34627 135.849 4.83126 135.728 5.2603 135.485C5.68933 135.233 6.02509 134.874 6.26759 134.408C6.51941 133.932 6.64532 133.382 6.64532 132.757Z" fill="#A1A5B1"/>
<path d="M12.7843 136.702C12.0661 136.702 11.4179 136.544 10.8396 136.227C10.2707 135.9 9.81835 135.443 9.48259 134.856C9.15615 134.259 8.99293 133.564 8.99293 132.771C8.99293 131.978 9.16081 131.288 9.49658 130.701C9.83234 130.104 10.2894 129.647 10.8676 129.33C11.4459 129.003 12.0941 128.84 12.8122 128.84C13.5304 128.84 14.1786 129.003 14.7569 129.33C15.3445 129.647 15.8015 130.104 16.1279 130.701C16.4637 131.288 16.6316 131.978 16.6316 132.771C16.6316 133.555 16.4637 134.245 16.1279 134.842C15.7921 135.439 15.3305 135.9 14.7429 136.227C14.1553 136.544 13.5024 136.702 12.7843 136.702ZM12.7843 135.849C13.2879 135.849 13.7542 135.737 14.1833 135.513C14.6123 135.28 14.9574 134.935 15.2185 134.478C15.489 134.012 15.6243 133.443 15.6243 132.771C15.6243 132.1 15.4937 131.535 15.2325 131.078C14.9714 130.612 14.6263 130.267 14.1973 130.043C13.7682 129.81 13.3019 129.693 12.7983 129.693C12.2946 129.693 11.8283 129.81 11.3992 130.043C10.9702 130.267 10.6251 130.612 10.364 131.078C10.1121 131.535 9.98623 132.1 9.98623 132.771C9.98623 133.443 10.1121 134.012 10.364 134.478C10.6251 134.935 10.9655 135.28 11.3852 135.513C11.8143 135.737 12.2806 135.849 12.7843 135.849Z" fill="#A1A5B1"/>
<path d="M28.4896 128.952L26.0973 136.591H25.118L23.0055 130.183L20.893 136.591H19.8997L17.5074 128.952H18.5007L20.4033 135.597L22.5438 128.952H23.5231L25.6356 135.611L27.5243 128.952H28.4896Z" fill="#A1A5B1"/>
<path d="M36.7358 132.38C36.7358 132.715 36.7265 132.972 36.7079 133.149H30.3703C30.3983 133.727 30.5382 134.222 30.79 134.632C31.0418 135.042 31.3729 135.355 31.7833 135.569C32.1937 135.774 32.6414 135.877 33.1264 135.877C33.7606 135.877 34.2922 135.723 34.7213 135.415C35.1596 135.108 35.4487 134.693 35.5886 134.17H36.6239C36.4374 134.916 36.0363 135.527 35.4208 136.003C34.8145 136.469 34.0497 136.702 33.1264 136.702C32.4082 136.702 31.7647 136.544 31.1957 136.227C30.6268 135.9 30.1791 135.443 29.8527 134.856C29.5356 134.259 29.377 133.564 29.377 132.771C29.377 131.978 29.5356 131.284 29.8527 130.687C30.1698 130.09 30.6128 129.633 31.1817 129.316C31.7507 128.999 32.3989 128.84 33.1264 128.84C33.8539 128.84 34.4881 128.999 35.029 129.316C35.5793 129.633 35.999 130.062 36.2882 130.603C36.5866 131.134 36.7358 131.727 36.7358 132.38ZM35.7425 132.352C35.7519 131.783 35.6353 131.298 35.3928 130.897C35.1596 130.496 34.8378 130.192 34.4275 129.987C34.0171 129.782 33.5694 129.679 33.0844 129.679C32.3569 129.679 31.7367 129.913 31.2237 130.379C30.7107 130.845 30.4263 131.503 30.3703 132.352H35.7425Z" fill="#A1A5B1"/>
<path d="M39.5069 130.309C39.7214 129.833 40.0478 129.465 40.4862 129.204C40.9339 128.943 41.4795 128.812 42.123 128.812V129.833H41.8572C41.1484 129.833 40.5794 130.024 40.1504 130.407C39.7214 130.789 39.5069 131.428 39.5069 132.324V136.591H38.5276V128.952H39.5069V130.309Z" fill="#A1A5B1"/>
<path d="M50.5074 132.38C50.5074 132.715 50.4981 132.972 50.4794 133.149H44.1419C44.1698 133.727 44.3097 134.222 44.5616 134.632C44.8134 135.042 45.1445 135.355 45.5549 135.569C45.9653 135.774 46.4129 135.877 46.8979 135.877C47.5321 135.877 48.0638 135.723 48.4928 135.415C48.9312 135.108 49.2203 134.693 49.3602 134.17H50.3955C50.2089 134.916 49.8079 135.527 49.1923 136.003C48.5861 136.469 47.8213 136.702 46.8979 136.702C46.1798 136.702 45.5362 136.544 44.9673 136.227C44.3984 135.9 43.9507 135.443 43.6242 134.856C43.3071 134.259 43.1486 133.564 43.1486 132.771C43.1486 131.978 43.3071 131.284 43.6242 130.687C43.9413 130.09 44.3844 129.633 44.9533 129.316C45.5222 128.999 46.1704 128.84 46.8979 128.84C47.6254 128.84 48.2596 128.999 48.8006 129.316C49.3509 129.633 49.7706 130.062 50.0597 130.603C50.3582 131.134 50.5074 131.727 50.5074 132.38ZM49.5141 132.352C49.5234 131.783 49.4068 131.298 49.1643 130.897C48.9312 130.496 48.6094 130.192 48.199 129.987C47.7886 129.782 47.341 129.679 46.856 129.679C46.1285 129.679 45.5082 129.913 44.9953 130.379C44.4823 130.845 44.1978 131.503 44.1419 132.352H49.5141Z" fill="#A1A5B1"/>
<path d="M51.8514 132.757C51.8514 131.974 52.01 131.288 52.3271 130.701C52.6442 130.104 53.0779 129.647 53.6282 129.33C54.1878 129.003 54.8173 128.84 55.5168 128.84C56.1884 128.84 56.7946 129.003 57.3356 129.33C57.8765 129.656 58.2729 130.08 58.5247 130.603V126.238H59.504V136.591H58.5247V134.884C58.2916 135.415 57.9092 135.854 57.3775 136.199C56.8459 136.535 56.221 136.702 55.5029 136.702C54.8033 136.702 54.1738 136.539 53.6142 136.213C53.0639 135.886 52.6302 135.425 52.3131 134.828C52.0053 134.231 51.8514 133.541 51.8514 132.757ZM58.5247 132.771C58.5247 132.156 58.3988 131.615 58.147 131.148C57.8952 130.682 57.5501 130.323 57.1117 130.071C56.6827 129.819 56.207 129.693 55.6847 129.693C55.1438 129.693 54.6588 129.815 54.2298 130.057C53.8007 130.3 53.4603 130.654 53.2085 131.12C52.966 131.577 52.8447 132.123 52.8447 132.757C52.8447 133.382 52.966 133.932 53.2085 134.408C53.4603 134.874 53.8007 135.233 54.2298 135.485C54.6588 135.728 55.1438 135.849 55.6847 135.849C56.207 135.849 56.6827 135.723 57.1117 135.471C57.5501 135.22 57.8952 134.86 58.147 134.394C58.3988 133.928 58.5247 133.387 58.5247 132.771Z" fill="#A1A5B1"/>
<path d="M66.5441 130.645C66.796 130.113 67.183 129.679 67.7053 129.344C68.2369 129.008 68.8618 128.84 69.58 128.84C70.2795 128.84 70.9044 129.003 71.4547 129.33C72.005 129.647 72.434 130.104 72.7418 130.701C73.0589 131.288 73.2174 131.974 73.2174 132.757C73.2174 133.541 73.0589 134.231 72.7418 134.828C72.434 135.425 72.0003 135.886 71.4407 136.213C70.8904 136.539 70.2702 136.702 69.58 136.702C68.8525 136.702 68.223 136.539 67.6913 136.213C67.169 135.877 66.7866 135.443 66.5441 134.912V136.591H65.5788V126.238H66.5441V130.645ZM72.2241 132.757C72.2241 132.123 72.0982 131.577 71.8464 131.12C71.6039 130.654 71.2681 130.3 70.8391 130.057C70.4101 129.815 69.9251 129.693 69.3841 129.693C68.8618 129.693 68.3815 129.819 67.9432 130.071C67.5141 130.323 67.1737 130.682 66.9219 131.148C66.67 131.615 66.5441 132.156 66.5441 132.771C66.5441 133.387 66.67 133.928 66.9219 134.394C67.1737 134.86 67.5141 135.22 67.9432 135.471C68.3815 135.723 68.8618 135.849 69.3841 135.849C69.9251 135.849 70.4101 135.728 70.8391 135.485C71.2681 135.233 71.6039 134.874 71.8464 134.408C72.0982 133.932 72.2241 133.382 72.2241 132.757Z" fill="#A1A5B1"/>
<path d="M81.315 128.952L76.7822 140.186H75.7609L77.2439 136.549L74.1101 128.952H75.1873L77.7895 135.471L80.3077 128.952H81.315Z" fill="#A1A5B1"/>
<path d="M93.743 126.811V136.591H92.7636V132.016H87.4614V136.591H86.4821V126.811H87.4614V131.204H92.7636V126.811H93.743Z" fill="#A1A5B1"/>
<path d="M102.273 128.952L97.7401 140.186H96.7188L98.2018 136.549L95.068 128.952H96.1452L98.7474 135.471L101.266 128.952H102.273Z" fill="#A1A5B1"/>
<path d="M106.609 129.777H104.832V136.591H103.853V129.777H102.789V128.952H103.853V128.42C103.853 127.59 104.063 126.979 104.482 126.588C104.911 126.196 105.601 126 106.553 126V126.839C105.919 126.839 105.471 126.961 105.21 127.203C104.958 127.446 104.832 127.851 104.832 128.42V128.952H106.609V129.777Z" fill="#A1A5B1"/>
<path d="M115.062 132.38C115.062 132.715 115.052 132.972 115.034 133.149H108.696C108.724 133.727 108.864 134.222 109.116 134.632C109.368 135.042 109.699 135.355 110.109 135.569C110.519 135.774 110.967 135.877 111.452 135.877C112.086 135.877 112.618 135.723 113.047 135.415C113.485 135.108 113.774 134.693 113.914 134.17H114.95C114.763 134.916 114.362 135.527 113.746 136.003C113.14 136.469 112.375 136.702 111.452 136.702C110.734 136.702 110.09 136.544 109.521 136.227C108.952 135.9 108.505 135.443 108.178 134.856C107.861 134.259 107.703 133.564 107.703 132.771C107.703 131.978 107.861 131.284 108.178 130.687C108.495 130.09 108.939 129.633 109.507 129.316C110.076 128.999 110.725 128.84 111.452 128.84C112.18 128.84 112.814 128.999 113.355 129.316C113.905 129.633 114.325 130.062 114.614 130.603C114.912 131.134 115.062 131.727 115.062 132.38ZM114.068 132.352C114.078 131.783 113.961 131.298 113.718 130.897C113.485 130.496 113.164 130.192 112.753 129.987C112.343 129.782 111.895 129.679 111.41 129.679C110.683 129.679 110.062 129.913 109.549 130.379C109.036 130.845 108.752 131.503 108.696 132.352H114.068Z" fill="#A1A5B1"/>
</g>
<defs>
<clipPath id="clip0_222_29305">
<rect width="115.062" height="14.2" fill="white" transform="translate(0 126)"/>
</clipPath>
</defs>
</svg>
