<svg width="19" height="18" viewBox="0 0 19 18" fill="none" xmlns="http://www.w3.org/2000/svg">
<mask id="mask0_364_9805" style="mask-type:luminance" maskUnits="userSpaceOnUse" x="0" y="0" width="19" height="18">
<path d="M18.9736 0H0.973633V18H18.9736V0Z" fill="white"/>
</mask>
<g mask="url(#mask0_364_9805)">
<path d="M7.72364 9L9.22364 10.5L12.5987 7.125M6.47396 2.86402C7.07684 2.81591 7.64917 2.57884 8.10949 2.18656C9.18368 1.27115 10.7636 1.27115 11.8378 2.18656C12.2981 2.57884 12.8705 2.81591 13.4733 2.86402C14.8802 2.97629 15.9974 4.09346 16.1096 5.50033C16.1578 6.1032 16.3948 6.67554 16.7871 7.13585C17.7025 8.21004 17.7025 9.78996 16.7871 10.8641C16.3948 11.3245 16.1578 11.8968 16.1096 12.4997C15.9974 13.9065 14.8802 15.0237 13.4733 15.136C12.8705 15.1841 12.2981 15.4212 11.8378 15.8134C10.7636 16.7289 9.18368 16.7289 8.10949 15.8134C7.64917 15.4212 7.07684 15.1841 6.47396 15.136C5.0671 15.0237 3.94993 13.9065 3.83766 12.4997C3.78955 11.8968 3.55248 11.3245 3.1602 10.8641C2.24478 9.78996 2.24478 8.21004 3.1602 7.13585C3.55248 6.67554 3.78955 6.1032 3.83766 5.50033C3.94993 4.09346 5.0671 2.97629 6.47396 2.86402Z" stroke="#27AE60" stroke-width="1.5" stroke-linecap="round" stroke-linejoin="round"/>
</g>
</svg>
