<svg width="28" height="28" viewBox="0 0 28 28" fill="none" xmlns="http://www.w3.org/2000/svg">
<path d="M14 26C15.5759 26 17.1363 25.6896 18.5922 25.0866C20.0481 24.4835 21.371 23.5996 22.4853 22.4853C23.5996 21.371 24.4835 20.0481 25.0866 18.5922C25.6896 17.1363 26 15.5759 26 14C26 12.4241 25.6896 10.8637 25.0866 9.4078C24.4835 7.95189 23.5996 6.62902 22.4853 5.51472C21.371 4.40042 20.0481 3.5165 18.5922 2.91345C17.1363 2.31039 15.5759 2 14 2M14 26C12.4241 26 10.8637 25.6896 9.4078 25.0866C7.95189 24.4835 6.62902 23.5996 5.51472 22.4853C4.40042 21.371 3.5165 20.0481 2.91345 18.5922C2.31039 17.1363 2 15.5759 2 14C2 12.4241 2.31039 10.8637 2.91345 9.4078C3.5165 7.95189 4.40042 6.62902 5.51472 5.51472C6.62902 4.40042 7.95189 3.5165 9.4078 2.91345C10.8637 2.31039 12.4241 2 14 2M14 26C17.6813 26 19.2547 19.116 19.2547 14C19.2547 8.884 17.6813 2 14 2M14 26C10.3187 26 8.74533 19.116 8.74533 14C8.74533 8.884 10.3187 2 14 2M2.66667 10H25.3333M2.66667 18H25.3333" stroke="#2E7BE0" stroke-width="1.5" stroke-linecap="round" stroke-linejoin="round"/>
</svg>
