<svg width="24" height="24" viewBox="0 0 24 24" fill="none" xmlns="http://www.w3.org/2000/svg">
<path d="M11.5088 0.303711C13.0605 0.303711 14.5165 0.597982 15.8789 1.18555C17.2462 1.77473 18.4327 2.57313 19.4414 3.58008C20.4501 4.58708 21.2498 5.7733 21.8398 7.14062C22.4273 8.50209 22.7217 9.95712 22.7217 11.5088C22.7217 13.0606 22.4276 14.5165 21.8408 15.8789C21.2516 17.2469 20.4529 18.4336 19.4443 19.4414C18.4355 20.4495 17.2497 21.2489 15.8848 21.8398C14.5261 22.4281 13.0709 22.7225 11.5166 22.7217C9.96481 22.7217 8.50893 22.4276 7.14648 21.8408C5.77936 21.2508 4.5926 20.4521 3.58398 19.4443C2.57521 18.4364 1.77558 17.2504 1.18555 15.8848C0.598133 14.5251 0.303711 13.07 0.303711 11.5166C0.303716 9.96328 0.598184 8.50792 1.18555 7.14746V7.14648C1.77478 5.77917 2.57294 4.59267 3.5791 3.58398C4.58519 2.57541 5.7715 1.77558 7.13965 1.18555C8.50189 0.598132 9.95727 0.303733 11.5088 0.303711ZM12.1797 7.37207C11.8246 7.01712 11.2496 7.01611 10.8936 7.37012L7.52344 10.7207C7.1659 11.0764 7.16557 11.6553 7.52246 12.0117L7.54297 12.0322C7.89885 12.3873 8.47554 12.3868 8.83105 12.0312L10.0508 10.8115C10.242 10.6203 10.5693 10.7557 10.5693 11.0264V15.2354C10.5695 15.738 10.9771 16.1464 11.4805 16.1465H11.5703C12.0735 16.1465 12.4814 15.7385 12.4814 15.2354V11.0254C12.4818 10.7551 12.8088 10.6203 13 10.8115L14.2197 12.0312C14.5755 12.387 15.153 12.387 15.5088 12.0312L15.5293 12.0098C15.8851 11.654 15.8851 11.0775 15.5293 10.7217L12.1797 7.37207Z" fill="#5896EB" stroke="white" stroke-width="0.607369"/>
</svg>
