<svg width="311" height="153" viewBox="0 0 311 153" fill="none" xmlns="http://www.w3.org/2000/svg">
<g clip-path="url(#clip0_973_13242)">
<path d="M-103.234 69.8796C-112.598 96.8331 -126.523 104.187 -132.314 104.495L-140 275.669L348.809 297.617L401.5 180.094C394.349 184.796 367.713 93.4064 355.5 143.094C326.726 196.673 292.094 135.575 284.716 122.559L284.547 122.261C277.545 109.914 264.385 105.563 256.057 107.069C247.73 108.575 222.198 133.712 217.104 110.17C205.104 71.5938 204.104 80.1704 194.105 62.6704C185.105 55.6704 180.395 54.4136 173.885 42.8409C167.375 31.2681 147.684 4.06287 131.328 35.6658C114.971 67.2687 98.8805 81.2108 84.6999 36.9563C70.5193 -7.29825 53.0959 -2.81634 45.7912 11.1443C38.4864 25.1049 22.2101 24.3371 -5.32082 30.6472C-19.2298 35.8391 -6.7985 94.8075 -22.6371 126.141C-43.0811 166.584 -52.6711 129.68 -59.2766 85.0139C-65.8821 40.3475 -91.5285 36.1878 -103.234 69.8796Z" fill="#DBE9FD"/>
<path d="M-132.201 104.247C-126.437 103.938 -112.575 96.5854 -103.25 69.6442C-91.5925 35.9678 -66.0663 40.1205 -59.4998 84.7625C-52.9334 129.404 -43.3948 166.287 -23.0385 125.861C-2.68215 85.4345 -38.2484 41.56 -21.8321 31.778C-5.25732 21.9015 33.73 35.4575 46.2929 11.3544C53.5663 -2.60028 69.7092 -7.52574 83.8156 36.7031C97.922 80.932 113.941 66.9941 130.227 35.4046C146.513 3.81512 166.107 31.0025 172.585 42.568C179.062 54.1336 184.064 55.1709 191.564 61.6709C204.405 72.7996 210.999 86.6424 216.064 110.171C221.13 133.699 246.074 108.254 254.363 106.747C262.651 105.24 275.75 109.587 282.717 121.926C289.685 134.265 303.063 151.094 317.063 161.094C358.671 190.814 413.881 206.607 421 201.906" stroke="#5896EB" stroke-width="3" stroke-linecap="round" stroke-linejoin="round"/>
</g>
<defs>
<clipPath id="clip0_973_13242">
<rect width="311" height="153" fill="white"/>
</clipPath>
</defs>
</svg>
