<svg width="329" height="189" viewBox="0 0 329 189" fill="none" xmlns="http://www.w3.org/2000/svg">
<g clip-path="url(#clip0_973_13233)">
<path d="M-103.234 69.7859C-112.598 96.7393 -126.523 104.093 -132.314 104.401L-140 275.575L348.809 297.523L401.5 180C394.349 184.702 367.713 93.3127 355.5 143C326.726 196.579 292.094 135.481 284.716 122.465L284.547 122.167C277.545 109.82 264.385 105.469 256.057 106.975C247.73 108.481 222.198 133.618 217.104 110.077C205.104 71.5 204.104 80.0767 194.105 62.5767C185.105 55.5767 180.395 54.3199 173.885 42.7471C167.375 31.1744 147.684 3.96912 131.328 35.572C114.971 67.175 98.8805 81.1171 84.6999 36.8625C70.5193 -7.392 53.0959 -2.91009 45.7912 11.0505C38.4864 25.0111 22.2101 24.2434 -5.32082 30.5534C-19.2298 35.7454 -6.7985 94.7138 -22.6371 126.047C-43.0811 166.491 -52.6711 129.587 -59.2766 84.9202C-65.8821 40.2537 -91.5285 36.094 -103.234 69.7859Z" fill="#DBE9FD"/>
<path d="M-132.203 104.152C-126.438 103.844 -112.577 96.4912 -103.252 69.55C-91.5945 35.8735 -66.0682 40.0263 -59.5018 84.6682C-52.9353 129.31 -43.3967 166.193 -23.0404 125.767C-2.6841 85.3402 -38.2504 41.4658 -21.8341 31.6838C-5.25928 21.8073 33.7281 35.3633 46.2909 11.2602C53.5643 -2.69452 69.7073 -7.61998 83.8137 36.6089C97.9201 80.8377 113.939 66.8999 130.225 35.3104C146.511 3.72088 166.105 30.9083 172.583 42.4738C179.06 54.0393 184.062 55.0767 191.563 61.5767C204.403 72.7054 210.997 86.5482 216.062 110.077C221.128 133.605 246.072 108.16 254.361 106.653C262.649 105.146 275.748 109.493 282.715 121.832C289.683 134.171 303.062 151 317.062 161C358.669 190.72 351.226 41.206 358.345 36.5052" stroke="#5896EB" stroke-width="3" stroke-linecap="round" stroke-linejoin="round"/>
</g>
<defs>
<clipPath id="clip0_973_13233">
<rect width="329" height="189" fill="white"/>
</clipPath>
</defs>
</svg>
