<svg width="60" height="58" viewBox="0 0 60 58" fill="none" xmlns="http://www.w3.org/2000/svg">
<path d="M0 23.1764L14.4069 19L8.04328 35.8376L0 23.1764Z" fill="#D9D9D9"/>
<path d="M12.1493 24.9704C27.9733 31.4526 32.7299 43.7202 32.8182 50.2976L26.8182 50.3776C26.7625 46.2404 23.5123 36.1707 10.0282 30.5827L8.04328 35.8376L0 23.1764L14.4069 19L12.1493 24.9704Z" fill="#D9D9D9"/>
<path d="M59.6367 23.1768L51.5938 35.8379L49.6074 30.583C36.124 36.1711 32.874 46.2407 32.8184 50.3779L26.8184 50.2979C26.9067 43.7206 31.6629 31.453 47.4863 24.9707L45.2295 19L59.6367 23.1768Z" fill="#D9D9D9"/>
<path d="M38.818 12H32.818V58H26.818V12H20.818L29.818 0L38.818 12Z" fill="#D9D9D9"/>
</svg>
