<svg width="329" height="266" viewBox="0 0 329 266" fill="none" xmlns="http://www.w3.org/2000/svg">
<g clip-path="url(#clip0_932_12711)">
<path d="M-103.234 146.786C-112.598 173.739 -126.523 181.093 -132.314 181.401L-140 352.575L348.809 374.523L401.5 257C394.349 261.702 367.713 170.313 355.5 220C326.726 273.579 292.094 212.481 284.716 199.465L284.547 199.167C277.545 186.82 264.385 182.469 256.057 183.975C247.73 185.481 222.198 210.618 217.104 187.077C205.104 148.5 204.104 157.077 194.105 139.577C185.105 132.577 180.395 131.32 173.885 119.747C167.375 108.174 147.684 80.9691 131.328 112.572C114.971 144.175 98.8805 158.117 84.6999 113.863C70.5193 69.608 53.0959 74.0899 45.7912 88.0505C38.4864 102.011 22.2101 101.243 -5.32082 107.553C-19.2298 112.745 -6.7985 171.714 -22.6371 203.047C-43.0811 243.491 -52.6711 206.587 -59.2766 161.92C-65.8821 117.254 -91.5285 113.094 -103.234 146.786Z" fill="#DBE9FD"/>
<path d="M-132.202 181.152C-126.437 180.844 -112.576 173.491 -103.251 146.55C-91.5935 112.874 -66.0672 117.026 -59.5008 161.668C-52.9343 206.31 -43.3958 243.193 -23.0394 202.767C-2.68313 162.34 -38.2494 118.466 -21.8331 108.684C-5.2583 98.8073 33.7291 112.363 46.2919 88.2602C53.5653 74.3055 69.7082 69.38 83.8147 113.609C97.9211 157.838 113.94 143.9 130.226 112.31C146.512 80.7209 166.106 107.908 172.584 119.474C179.061 131.039 184.063 132.077 191.563 138.577C204.404 149.705 210.998 163.548 216.063 187.077C221.129 210.605 246.073 185.16 254.362 183.653C262.65 182.146 275.749 186.493 282.716 198.832C289.684 211.171 303.063 228 317.063 238C358.67 267.72 351.227 118.206 358.346 113.505" stroke="#5896EB" stroke-width="3" stroke-linecap="round" stroke-linejoin="round"/>
</g>
<defs>
<clipPath id="clip0_932_12711">
<rect width="329" height="266" rx="14" fill="white"/>
</clipPath>
</defs>
</svg>
