<svg width="24" height="24" viewBox="0 0 24 24" fill="none" xmlns="http://www.w3.org/2000/svg">
<path fill-rule="evenodd" clip-rule="evenodd" d="M6 1C5.44772 1 5 1.44772 5 2C5 2.50782 5.17031 2.94197 5.35811 3.28351C5.54186 3.61767 5.77693 3.92243 5.95908 4.15786L5.96998 4.17195C6.16598 4.42526 6.3036 4.60312 6.40243 4.7721C6.44886 4.85148 6.47432 4.909 6.48777 4.94895C6.49421 4.9681 6.49725 4.98133 6.49867 4.98933C6.49938 4.99331 6.49971 4.99607 6.49986 4.99771L6.49998 4.99948L6.5 4.99988L6.5 4.99997C6.5 5.00021 6.5 5.00011 6.5 5C6.5 5.00417 6.49635 5.07786 6.39405 5.25974C6.29163 5.44181 6.14665 5.6378 5.95 5.9C5.94442 5.90744 5.93879 5.91494 5.93311 5.92251C5.75731 6.15684 5.53604 6.45176 5.3628 6.75974C5.18386 7.07786 5 7.50417 5 8C5 8.49583 5.18385 8.92214 5.3628 9.24026C5.53604 9.54824 5.7573 9.84316 5.93311 10.0775L5.95 10.1C6.14665 10.3622 6.29163 10.5582 6.39405 10.7403C6.49635 10.9221 6.5 10.9958 6.5 11C6.5 11.5523 6.94771 12 7.5 12C8.05228 12 8.5 11.5523 8.5 11C8.5 10.5042 8.31614 10.0779 8.1372 9.75974C7.96396 9.45176 7.74269 9.15684 7.56689 8.92251C7.56121 8.91494 7.55558 8.90744 7.55 8.9C7.35335 8.6378 7.20837 8.44181 7.10595 8.25974C7.00364 8.07786 7 8.00417 7 8C7 7.99583 7.00364 7.92214 7.10595 7.74026C7.20837 7.55819 7.35335 7.3622 7.55 7.1C7.55558 7.09256 7.56121 7.08506 7.56689 7.07749C7.74269 6.84316 7.96396 6.54824 8.1372 6.24026C8.31614 5.92214 8.5 5.49583 8.5 5C8.5 4.49891 8.3126 4.07656 8.12882 3.76235C7.96184 3.47687 7.74911 3.20254 7.58109 2.98586C7.56739 2.96818 7.55398 2.95089 7.54092 2.93401C7.34807 2.68476 7.20814 2.49717 7.11064 2.31985C7.01719 2.1499 7 2.05343 7 2C7 1.44772 6.55228 1 6 1ZM6.5 4.99999C6.5 4.99974 6.5 4.99988 6.5 5C6.5 4.99951 6.5 5.00048 6.5 4.99999Z" fill="#5896EB"/>
<path fill-rule="evenodd" clip-rule="evenodd" d="M11 1C10.4477 1 10 1.44772 10 2C10 2.50782 10.1703 2.94197 10.3581 3.28351C10.5419 3.61767 10.7769 3.92243 10.9591 4.15786L10.97 4.17195C11.166 4.42526 11.3036 4.60312 11.4024 4.7721C11.4489 4.85148 11.4743 4.909 11.4878 4.94895C11.4942 4.9681 11.4972 4.98133 11.4987 4.98933C11.4994 4.99331 11.4997 4.99607 11.4999 4.99771L11.5 4.99948L11.5 4.99988L11.5 4.99997C11.5 5.00021 11.5 5.00011 11.5 5C11.5 5.00417 11.4964 5.07786 11.394 5.25974C11.2916 5.44181 11.1466 5.6378 10.95 5.9C10.9444 5.90744 10.9388 5.91494 10.9331 5.92251C10.7573 6.15684 10.536 6.45176 10.3628 6.75974C10.1839 7.07786 10 7.50417 10 8C10 8.49583 10.1839 8.92214 10.3628 9.24026C10.536 9.54824 10.7573 9.84316 10.9331 10.0775L10.95 10.1C11.1466 10.3622 11.2916 10.5582 11.394 10.7403C11.4964 10.9221 11.5 10.9958 11.5 11C11.5 11.5523 11.9477 12 12.5 12C13.0523 12 13.5 11.5523 13.5 11C13.5 10.5042 13.3161 10.0779 13.1372 9.75974C12.964 9.45176 12.7427 9.15684 12.5669 8.92251C12.5612 8.91494 12.5556 8.90744 12.55 8.9C12.3534 8.6378 12.2084 8.44181 12.106 8.25974C12.0036 8.07786 12 8.00417 12 8C12 7.99583 12.0036 7.92214 12.106 7.74026C12.2084 7.55819 12.3534 7.3622 12.55 7.1C12.5556 7.09256 12.5612 7.08506 12.5669 7.07749C12.7427 6.84316 12.964 6.54824 13.1372 6.24026C13.3161 5.92214 13.5 5.49583 13.5 5C13.5 4.49891 13.3126 4.07656 13.1288 3.76235C12.9618 3.47687 12.7491 3.20254 12.5811 2.98586C12.5674 2.96818 12.554 2.95089 12.5409 2.93401C12.3481 2.68476 12.2081 2.49717 12.1106 2.31985C12.0172 2.1499 12 2.05343 12 2C12 1.44772 11.5523 1 11 1ZM11.5 4.99999C11.5 4.99974 11.5 4.99988 11.5 5C11.5 4.99951 11.5 5.00048 11.5 4.99999Z" fill="#5896EB"/>
<path fill-rule="evenodd" clip-rule="evenodd" d="M17 15V18C17 20.2091 15.2091 22 13 22H6C3.79086 22 2 20.2091 2 18V13H22C22.5523 13 23 13.4477 23 14C23 14.5523 22.5523 15 22 15H17ZM4 15H15V18C15 19.1046 14.1046 20 13 20H6C4.89543 20 4 19.1046 4 18V15Z" fill="#5896EB"/>
</svg>
