<svg width="24" height="24" viewBox="0 0 24 24" fill="none" xmlns="http://www.w3.org/2000/svg">
<path d="M7 11C7 11.5523 6.55228 12 6 12C5.44772 12 5 11.5523 5 11C5 10.4477 5.44772 10 6 10C6.55228 10 7 10.4477 7 11Z" fill="#5896EB"/>
<path d="M12 14C12.5523 14 13 13.5523 13 13C13 12.4477 12.5523 12 12 12C11.4477 12 11 12.4477 11 13C11 13.5523 11.4477 14 12 14Z" fill="#5896EB"/>
<path d="M8 6C8 5.44772 8.44772 5 9 5C9.55228 5 10 5.44772 10 6V7C10 7.55228 9.55228 8 9 8C8.44772 8 8 7.55228 8 7V6Z" fill="#5896EB"/>
<path d="M15.707 15.4142C15.3164 15.8047 15.3164 16.4379 15.707 16.8284C16.0975 17.2189 16.7306 17.2189 17.1212 16.8284L17.8283 16.1213C18.2188 15.7308 18.2188 15.0976 17.8283 14.7071C17.4378 14.3166 16.8046 14.3166 16.4141 14.7071L15.707 15.4142Z" fill="#5896EB"/>
<path d="M8.78574 16.6185C8.35179 16.9601 8.27694 17.5888 8.61856 18.0228L9.23712 18.8085C9.57874 19.2425 10.2075 19.3173 10.6414 18.9757C11.0754 18.6341 11.1502 18.0054 10.8086 17.5714L10.19 16.7857C9.84842 16.3517 9.21969 16.2769 8.78574 16.6185Z" fill="#5896EB"/>
<path fill-rule="evenodd" clip-rule="evenodd" d="M22.0013 11L23 11V12C23 18.0751 18.0751 23 12 23C5.92487 23 1 18.0751 1 12C1 5.92487 5.92487 1 12 1H13V1.99773L13 1.99961L13.0004 2.02127C13.001 2.04286 13.0021 2.07848 13.0046 2.12695C13.0095 2.22396 13.0197 2.37196 13.0408 2.56144C13.083 2.94119 13.1682 3.48284 13.3398 4.11188C13.6841 5.37458 14.3653 6.95113 15.7071 8.29289C17.0489 9.63466 18.6254 10.3159 19.8881 10.6602C20.5172 10.8318 21.0588 10.917 21.4386 10.9592C21.628 10.9803 21.776 10.9905 21.873 10.9954C21.9215 10.9979 21.9571 10.999 21.9787 10.9996L22.0013 11ZM11.0855 3.04589C6.54446 3.50415 3 7.33815 3 12C3 16.9706 7.02944 21 12 21C16.6618 21 20.4958 17.4555 20.9541 12.9145C20.5214 12.856 19.9755 12.7571 19.3619 12.5898C17.8746 12.1841 15.9511 11.3653 14.2929 9.70711C12.6347 8.04887 11.8159 6.12542 11.4102 4.63812C11.2429 4.02446 11.144 3.47855 11.0855 3.04589Z" fill="#5896EB"/>
<path d="M17 3C17 3.55228 16.5523 4 16 4C15.4477 4 15 3.55228 15 3C15 2.44772 15.4477 2 16 2C16.5523 2 17 2.44772 17 3Z" fill="#5896EB"/>
<path d="M20 9C20.5523 9 21 8.55228 21 8C21 7.44772 20.5523 7 20 7C19.4477 7 19 7.44772 19 8C19 8.55228 19.4477 9 20 9Z" fill="#5896EB"/>
<path d="M19.6186 4.0228C19.2769 3.58885 19.3518 2.96012 19.7857 2.6185C20.2197 2.27688 20.8484 2.35173 21.19 2.78568L21.8086 3.57142C22.1502 4.00537 22.0754 4.6341 21.6414 4.97572C21.2075 5.31734 20.5787 5.24249 20.2371 4.80854L19.6186 4.0228Z" fill="#5896EB"/>
</svg>
