<svg width="24" height="24" viewBox="0 0 24 24" fill="none" xmlns="http://www.w3.org/2000/svg">
<path fill-rule="evenodd" clip-rule="evenodd" d="M21.1922 9.87853L19.7779 11.2927C18.9969 12.0738 17.7306 12.0738 16.9495 11.2927L15.5354 9.87862L9.87856 15.5355L11.2927 16.9496C12.0738 17.7307 12.0738 18.997 11.2927 19.7781L9.87854 21.1923C9.09749 21.9733 7.83116 21.9733 7.05011 21.1923L5.63598 19.7782L4.92901 20.4851C4.53849 20.8757 3.90533 20.8757 3.5148 20.4851C3.12428 20.0946 3.12428 19.4614 3.5148 19.0709L4.22177 18.3639L2.80747 16.9496C2.02642 16.1686 2.02642 14.9023 2.80747 14.1212L4.22168 12.707C5.00273 11.926 6.26906 11.926 7.05011 12.707L8.46435 14.1212L14.1212 8.46441L12.7069 7.05011C11.9258 6.26906 11.9258 5.00273 12.7069 4.22168L14.1211 2.80747C14.9021 2.02642 16.1685 2.02642 16.9495 2.80747L18.3638 4.22177C18.3638 4.2218 18.3639 4.22174 18.3638 4.22177L19.071 3.51456C19.4616 3.12404 20.0947 3.12404 20.4852 3.51456C20.8758 3.90509 20.8758 4.53825 20.4852 4.92878L19.7781 5.63588C19.7781 5.63592 19.7782 5.63585 19.7781 5.63588L21.1922 7.05011C21.9732 7.83115 21.9732 9.09748 21.1922 9.87853ZM16.2329 7.74771L14.1211 5.63589L15.5353 4.22168L19.7779 8.46432L18.3637 9.87853L16.2521 7.7669C16.2489 7.76366 16.2458 7.76044 16.2426 7.75724C16.2394 7.75404 16.2361 7.75086 16.2329 7.74771ZM9.87854 18.3639L8.46432 19.7781L4.22168 15.5354L5.63589 14.1212L9.87854 18.3639Z" fill="#5896EB"/>
</svg>
