<svg width="68" height="48" viewBox="0 0 68 48" fill="none" xmlns="http://www.w3.org/2000/svg">
<path fill-rule="evenodd" clip-rule="evenodd" d="M20.3672 4.21387C20.3672 1.88662 22.2217 0 24.5093 0C29.2838 0 33.7389 1.39022 37.5048 3.7909C40.0959 2.70556 42.9344 2.10694 45.9103 2.10694C58.111 2.10694 68.0016 12.1689 68.0016 24.5809C68.0016 26.9082 66.1471 28.7948 63.8595 28.7948C61.5719 28.7948 59.7174 26.9082 59.7174 24.5809C59.7174 16.8234 53.5357 10.5347 45.9103 10.5347C45.4565 10.5347 45.0079 10.557 44.5654 10.6005C44.5947 10.6429 44.6239 10.6854 44.653 10.728C47.3001 14.6071 48.8933 19.2912 49.01 24.3358C49.0146 24.4169 49.0169 24.4987 49.0169 24.5809C49.0169 24.6299 49.0166 24.6788 49.0161 24.7277C49.0166 24.7957 49.0169 24.8639 49.0169 24.9321C49.0169 25.0907 49.0083 25.2473 48.9915 25.4013C48.5757 32.0978 43.1052 37.3981 36.4179 37.3981C29.4597 37.3981 23.819 31.6597 23.819 24.5809C23.819 18.6775 26.0564 13.3057 29.7156 9.29527C28.0811 8.73249 26.3302 8.42775 24.5093 8.42775C22.2217 8.42775 20.3672 6.54113 20.3672 4.21387ZM36.7361 14.0836C33.8937 16.6563 32.1032 20.4059 32.1032 24.5809C32.1032 27.0052 34.035 28.9704 36.4179 28.9704C38.7617 28.9704 40.669 27.0693 40.7311 24.7002C40.6851 21.2903 39.6267 18.1409 37.8478 15.5341C37.5033 15.0293 37.132 14.545 36.7361 14.0836Z" fill="#3CA4DC"/>
<path fill-rule="evenodd" clip-rule="evenodd" d="M24.5076 8.42775C15.5477 8.42775 8.28425 15.817 8.28425 24.9321C8.28425 31.5956 12.1662 37.3456 17.7727 39.9526C19.8533 40.9201 20.769 43.4202 19.818 45.5368C18.867 47.6535 16.4094 48.5851 14.3288 47.6176C5.88258 43.6902 0 35.0144 0 24.9321C0 11.1625 10.9724 0 24.5076 0C32.859 0 40.233 4.25348 44.6512 10.728C45.9558 12.6398 45.49 15.2654 43.6108 16.5926C41.7316 17.9198 39.1507 17.4459 37.8461 15.5341C34.9096 11.231 30.03 8.42775 24.5076 8.42775Z" fill="#1F63DD"/>
</svg>
