<svg width="316" height="80" viewBox="0 0 316 80" fill="none" xmlns="http://www.w3.org/2000/svg">
<path fill-rule="evenodd" clip-rule="evenodd" d="M33.5449 6.94031C33.5449 3.10728 36.5993 0 40.3671 0C48.2307 0 55.5683 2.28972 61.7709 6.24367C66.0384 4.4561 70.7134 3.47015 75.6148 3.47015C95.7095 3.47015 112 20.0423 112 40.4851C112 44.3182 108.945 47.4254 105.177 47.4254C101.41 47.4254 98.3552 44.3182 98.3552 40.4851C98.3552 27.7084 88.174 17.3508 75.6148 17.3508C74.8674 17.3508 74.1285 17.3874 73.3996 17.4591C73.448 17.529 73.4961 17.599 73.544 17.6692C77.9037 24.0581 80.5279 31.7729 80.72 40.0815C80.7276 40.215 80.7314 40.3496 80.7314 40.4851C80.7314 40.5658 80.7309 40.6464 80.7301 40.7268C80.7309 40.8389 80.7314 40.9512 80.7314 41.0635C80.7314 41.3247 80.7172 41.5826 80.6896 41.8363C80.0047 52.8655 70.9948 61.5952 59.9807 61.5952C48.5204 61.5952 39.23 52.1439 39.23 40.4851C39.23 30.7621 42.9151 21.9147 48.9419 15.3094C46.2499 14.3825 43.366 13.8806 40.3671 13.8806C36.5993 13.8806 33.5449 10.7733 33.5449 6.94031ZM60.5048 23.1958C55.8233 27.4332 52.8743 33.6088 52.8743 40.4851C52.8743 44.4779 56.056 47.7146 59.9807 47.7146C63.8409 47.7146 66.9822 44.5835 67.0845 40.6816C67.0088 35.0654 65.2656 29.8784 62.3358 25.5849C61.7683 24.7534 61.1569 23.9559 60.5048 23.1958Z" fill="#3CA4DC"/>
<path fill-rule="evenodd" clip-rule="evenodd" d="M40.3643 13.8806C25.6073 13.8806 13.6443 26.0508 13.6443 41.0635C13.6443 52.0384 20.0379 61.5088 29.2718 65.8025C32.6986 67.3959 34.2068 71.5137 32.6405 74.9998C31.0742 78.486 27.0265 80.0203 23.5998 78.4269C9.6887 71.9583 0 57.6693 0 41.0635C0 18.3847 18.0717 0 40.3643 0C54.1192 0 66.2644 7.00554 73.5412 17.6692C75.6899 20.8179 74.9227 25.1424 71.8276 27.3282C68.7325 29.5141 64.4817 28.7336 62.333 25.5849C57.4967 18.4976 49.4599 13.8806 40.3643 13.8806Z" fill="#1F63DD"/>
<g clip-path="url(#clip0_948_15579)">
<path d="M130 51.568V27.728H138.736C140.443 27.728 142 27.952 143.408 28.4C144.816 28.848 145.936 29.6267 146.768 30.736C147.621 31.824 148.048 33.328 148.048 35.248C148.048 37.104 147.621 38.6186 146.768 39.792C145.936 40.9653 144.816 41.8293 143.408 42.384C142 42.9173 140.443 43.184 138.736 43.184H135.728V51.568H130ZM135.728 38.672H138.288C139.653 38.672 140.688 38.384 141.392 37.808C142.117 37.2106 142.48 36.3573 142.48 35.248C142.48 34.1173 142.117 33.3387 141.392 32.912C140.688 32.4853 139.653 32.272 138.288 32.272H135.728V38.672ZM142.864 51.568L137.712 41.712L141.584 37.968L149.264 51.568H142.864ZM159.87 52.016C158.121 52.016 156.542 51.6426 155.134 50.896C153.748 50.128 152.638 49.0293 151.806 47.6C150.996 46.1706 150.59 44.4533 150.59 42.448C150.59 40.976 150.825 39.6533 151.294 38.48C151.785 37.3066 152.436 36.304 153.246 35.472C154.078 34.64 155.006 34.0107 156.03 33.584C157.076 33.136 158.142 32.912 159.23 32.912C160.98 32.912 162.43 33.296 163.582 34.064C164.734 34.832 165.598 35.8773 166.174 37.2C166.75 38.5226 167.038 40.016 167.038 41.68C167.038 42.192 167.006 42.672 166.942 43.12C166.9 43.568 166.846 43.9093 166.782 44.144H156.094C156.265 44.976 156.564 45.648 156.99 46.16C157.417 46.672 157.94 47.056 158.558 47.312C159.177 47.5466 159.87 47.664 160.638 47.664C161.3 47.664 161.94 47.568 162.558 47.376C163.177 47.184 163.817 46.896 164.478 46.512L166.366 49.936C165.428 50.5973 164.372 51.1093 163.198 51.472C162.046 51.8346 160.937 52.016 159.87 52.016ZM155.998 40.4H162.206C162.206 39.504 161.982 38.7573 161.534 38.16C161.108 37.5626 160.372 37.264 159.326 37.264C158.814 37.264 158.324 37.3813 157.854 37.616C157.406 37.8293 157.012 38.1706 156.67 38.64C156.35 39.088 156.126 39.6746 155.998 40.4ZM176.117 52.016C174.944 52.016 173.717 51.7813 172.437 51.312C171.157 50.8426 170.048 50.224 169.109 49.456L171.637 45.904C172.469 46.5226 173.258 47.0026 174.005 47.344C174.773 47.664 175.52 47.824 176.245 47.824C176.992 47.824 177.536 47.696 177.877 47.44C178.218 47.184 178.389 46.832 178.389 46.384C178.389 46.0213 178.218 45.712 177.877 45.456C177.536 45.2 177.088 44.9653 176.533 44.752C175.978 44.5173 175.392 44.2826 174.773 44.048C174.048 43.7493 173.322 43.376 172.597 42.928C171.893 42.48 171.306 41.9146 170.837 41.232C170.368 40.528 170.133 39.6746 170.133 38.672C170.133 37.52 170.421 36.5173 170.997 35.664C171.594 34.7893 172.416 34.1173 173.461 33.648C174.528 33.1573 175.765 32.912 177.173 32.912C178.602 32.912 179.85 33.1573 180.917 33.648C181.984 34.1173 182.901 34.6507 183.669 35.248L181.141 38.64C180.48 38.1706 179.829 37.7973 179.189 37.52C178.57 37.2426 177.962 37.104 177.365 37.104C176.704 37.104 176.213 37.2213 175.893 37.456C175.594 37.6693 175.445 37.9893 175.445 38.416C175.445 38.7786 175.594 39.0773 175.893 39.312C176.213 39.5466 176.64 39.76 177.173 39.952C177.706 40.144 178.282 40.3573 178.901 40.592C179.477 40.8053 180.042 41.0613 180.597 41.36C181.173 41.6373 181.696 41.9893 182.165 42.416C182.634 42.8426 183.008 43.3546 183.285 43.952C183.562 44.528 183.701 45.232 183.701 46.064C183.701 47.1733 183.413 48.1866 182.837 49.104C182.261 50 181.408 50.7146 180.277 51.248C179.168 51.76 177.781 52.016 176.117 52.016ZM194.893 52.016C193.357 52.016 191.907 51.6426 190.541 50.896C189.176 50.128 188.067 49.0293 187.213 47.6C186.381 46.1706 185.965 44.4533 185.965 42.448C185.965 40.4426 186.381 38.736 187.213 37.328C188.067 35.8987 189.176 34.8107 190.541 34.064C191.907 33.296 193.357 32.912 194.893 32.912C196.045 32.912 197.155 33.1253 198.221 33.552C199.288 33.9787 200.237 34.608 201.069 35.44C201.901 36.2506 202.563 37.2426 203.053 38.416C203.544 39.5893 203.789 40.9333 203.789 42.448C203.789 44.4533 203.363 46.1706 202.509 47.6C201.677 49.0293 200.579 50.128 199.213 50.896C197.869 51.6426 196.429 52.016 194.893 52.016ZM194.893 47.408C195.597 47.408 196.173 47.2053 196.621 46.8C197.091 46.3946 197.432 45.8186 197.645 45.072C197.859 44.3253 197.965 43.4506 197.965 42.448C197.965 41.4453 197.859 40.5813 197.645 39.856C197.432 39.1093 197.091 38.5333 196.621 38.128C196.173 37.7226 195.597 37.52 194.893 37.52C194.189 37.52 193.603 37.7226 193.133 38.128C192.685 38.5333 192.344 39.1093 192.109 39.856C191.896 40.5813 191.789 41.4453 191.789 42.448C191.789 43.4506 191.896 44.3253 192.109 45.072C192.344 45.8186 192.685 46.3946 193.133 46.8C193.603 47.2053 194.189 47.408 194.893 47.408ZM212.548 52.016C211.247 52.016 210.212 51.7493 209.444 51.216C208.698 50.6826 208.164 49.936 207.844 48.976C207.524 48.016 207.364 46.9066 207.364 45.648V26H213.06V45.84C213.06 46.4373 213.167 46.8533 213.38 47.088C213.615 47.3013 213.839 47.408 214.052 47.408C214.159 47.408 214.255 47.408 214.34 47.408C214.426 47.3866 214.543 47.3653 214.692 47.344L215.364 51.536C215.066 51.664 214.682 51.7706 214.212 51.856C213.743 51.9626 213.188 52.016 212.548 52.016ZM222.181 51.568L216.133 33.36H221.861L224.069 41.744C224.304 42.64 224.528 43.5573 224.741 44.496C224.976 45.4346 225.211 46.384 225.445 47.344H225.605C225.84 46.384 226.064 45.4346 226.277 44.496C226.512 43.5573 226.736 42.64 226.949 41.744L229.189 33.36H234.662L228.773 51.568H222.181ZM245.121 52.016C243.371 52.016 241.793 51.6426 240.385 50.896C238.998 50.128 237.889 49.0293 237.057 47.6C236.246 46.1706 235.841 44.4533 235.841 42.448C235.841 40.976 236.075 39.6533 236.545 38.48C237.035 37.3066 237.686 36.304 238.497 35.472C239.329 34.64 240.257 34.0107 241.281 33.584C242.326 33.136 243.393 32.912 244.481 32.912C246.23 32.912 247.681 33.296 248.833 34.064C249.985 34.832 250.849 35.8773 251.425 37.2C252.001 38.5226 252.289 40.016 252.289 41.68C252.289 42.192 252.257 42.672 252.193 43.12C252.15 43.568 252.097 43.9093 252.033 44.144H241.345C241.515 44.976 241.814 45.648 242.241 46.16C242.667 46.672 243.19 47.056 243.809 47.312C244.427 47.5466 245.121 47.664 245.889 47.664C246.55 47.664 247.19 47.568 247.809 47.376C248.427 47.184 249.067 46.896 249.729 46.512L251.617 49.936C250.678 50.5973 249.622 51.1093 248.449 51.472C247.297 51.8346 246.187 52.016 245.121 52.016ZM241.249 40.4H247.457C247.457 39.504 247.233 38.7573 246.785 38.16C246.358 37.5626 245.622 37.264 244.577 37.264C244.065 37.264 243.574 37.3813 243.105 37.616C242.657 37.8293 242.262 38.1706 241.921 38.64C241.601 39.088 241.377 39.6746 241.249 40.4ZM256.375 51.568V27.728H263.223C265.655 27.728 267.767 28.144 269.559 28.976C271.372 29.7867 272.78 31.056 273.783 32.784C274.786 34.512 275.287 36.7626 275.287 39.536C275.287 42.288 274.786 44.56 273.783 46.352C272.802 48.1226 271.426 49.4346 269.655 50.288C267.906 51.1413 265.868 51.568 263.543 51.568H256.375ZM262.103 46.96H262.871C264.151 46.96 265.282 46.736 266.263 46.288C267.266 45.84 268.044 45.072 268.599 43.984C269.154 42.896 269.431 41.4133 269.431 39.536C269.431 37.6373 269.154 36.1653 268.599 35.12C268.044 34.0747 267.266 33.3493 266.263 32.944C265.282 32.5173 264.151 32.304 262.871 32.304H262.103V46.96ZM283.014 51.568V32.496H276.582V27.728H295.206V32.496H288.742V51.568H283.014ZM295.57 51.568L302.098 39.312L295.922 27.728H302.29L304.21 32.016C304.488 32.5707 304.754 33.168 305.01 33.808C305.288 34.448 305.597 35.152 305.938 35.92H306.066C306.344 35.152 306.61 34.448 306.866 33.808C307.122 33.168 307.368 32.5707 307.602 32.016L309.33 27.728H315.378L309.234 39.568L315.794 51.568H309.426L307.218 46.928C306.941 46.3093 306.653 45.68 306.354 45.04C306.077 44.3786 305.778 43.6853 305.458 42.96H305.33C305.053 43.6853 304.776 44.3786 304.498 45.04C304.242 45.68 303.976 46.3093 303.698 46.928L301.65 51.568H295.57Z" fill="#2E7BE0"/>
</g>
<defs>
<clipPath id="clip0_948_15579">
<rect width="186" height="27" fill="white" transform="translate(130 26)"/>
</clipPath>
</defs>
</svg>
