<svg width="24" height="24" viewBox="0 0 24 24" fill="none" xmlns="http://www.w3.org/2000/svg">
<path fill-rule="evenodd" clip-rule="evenodd" d="M6.53409 1C7.08638 1 7.53409 1.44772 7.53409 2C7.53409 3.24487 8.07532 4.8707 8.91228 6.59732C9.73517 8.2949 10.7843 9.97139 11.6746 11.282C12.8021 12.9415 11.6722 15.3564 9.56272 15.3564H6V18C6 18.5523 5.55228 19 5 19C4.44772 19 4 18.5523 4 18V15.3564C4 14.2519 4.89543 13.3564 6 13.3564H9.56272C9.76545 13.3564 9.94337 13.245 10.0484 13.0377C10.1552 12.8269 10.1462 12.5912 10.0203 12.4059C9.10171 11.0537 7.99414 9.28835 7.11257 7.46971C6.24508 5.68011 5.53409 3.71535 5.53409 2C5.53409 1.44772 5.98181 1 6.53409 1ZM17.657 18.6568C19.1573 17.1566 20.0001 15.1217 20.0001 13C20.0001 12.4477 20.4479 12 21.0001 12C21.5524 12 22.0001 12.4477 22.0001 13C22.0001 15.6522 20.9466 18.1957 19.0712 20.0711C17.1959 21.9464 14.6523 23 12.0001 23C11.4479 23 11.0001 22.5523 11.0001 22C11.0001 21.4477 11.4479 21 12.0001 21C14.1219 21 16.1567 20.1571 17.657 18.6568ZM14.8284 15.8287C15.5785 15.0785 16 14.0611 16 13.0002C16 12.4479 16.4477 12.0002 17 12.0002C17.5522 12.0002 18 12.4479 18 13.0002C18 14.5915 17.3678 16.1177 16.2426 17.2429C15.1174 18.3681 13.5913 19.0002 12 19.0002C11.4477 19.0002 11 18.5525 11 18.0002C11 17.4479 11.4477 17.0002 12 17.0002C13.0608 17.0002 14.0782 16.5788 14.8284 15.8287Z" fill="#5896EB"/>
</svg>
