<svg width="24" height="24" viewBox="0 0 24 24" fill="none" xmlns="http://www.w3.org/2000/svg">
<g clip-path="url(#clip0_894_10549)">
<path fill-rule="evenodd" clip-rule="evenodd" d="M2.47325 6.50004C2.74939 6.02175 3.36098 5.85787 3.83927 6.13401L4.81917 6.69976L4.70737 4.96632C4.67183 4.41518 5.0898 3.93958 5.64094 3.90404C6.19208 3.86849 6.66768 4.28646 6.70323 4.8376L6.90083 7.90161L8.1694 8.63401C8.19862 8.65088 8.22666 8.669 8.2535 8.68826C8.96027 7.8894 9.91864 7.31829 11.0045 7.09902C11.0013 7.06645 10.9997 7.03341 10.9997 7V5.53518L8.44497 3.83205C7.98544 3.5257 7.86127 2.90483 8.16762 2.4453C8.47397 1.98577 9.09484 1.8616 9.55437 2.16795L10.9997 3.13148V2C10.9997 1.44772 11.4474 1 11.9997 1C12.552 1 12.9997 1.44772 12.9997 2L12.9997 3.13148L14.445 2.16795C14.9045 1.8616 15.5254 1.98577 15.8317 2.4453C16.1381 2.90483 16.0139 3.5257 15.5544 3.83205L12.9997 5.53518V7C12.9997 7.03343 12.998 7.06647 12.9948 7.09906C14.0806 7.31837 15.0389 7.88947 15.7457 8.6883C15.7725 8.66902 15.8006 8.65088 15.8298 8.634L17.0984 7.90159L17.296 4.83759C17.3316 4.28645 17.8072 3.86847 18.3583 3.90402C18.9094 3.93956 19.3274 4.41516 19.2919 4.9663L19.1801 6.69974L20.16 6.134C20.6383 5.85785 21.2498 6.02173 21.526 6.50002C21.8021 6.97831 21.6383 7.5899 21.16 7.86605L20.1801 8.43179L21.7372 9.20169C22.2322 9.44648 22.4351 10.0463 22.1903 10.5413C21.9456 11.0364 21.3458 11.2393 20.8507 10.9945L18.0984 9.63364L16.8298 10.366C16.801 10.3827 16.7716 10.3978 16.7419 10.4113C16.909 10.9104 16.9996 11.4446 16.9996 12C16.9996 12.5554 16.909 13.0897 16.7419 13.5888C16.7716 13.6023 16.801 13.6173 16.8298 13.634L18.0984 14.3664L20.8507 13.0056C21.3458 12.7608 21.9456 12.9637 22.1903 13.4587C22.4351 13.9538 22.2322 14.5536 21.7372 14.7984L20.1801 15.5683L21.16 16.134C21.6383 16.4102 21.8021 17.0217 21.526 17.5C21.2498 17.9783 20.6383 18.1422 20.16 17.8661L19.1801 17.3003L19.2919 19.0338C19.3274 19.5849 18.9094 20.0605 18.3583 20.096C17.8072 20.1316 17.3315 19.7136 17.296 19.1625L17.0984 16.0985L15.8298 15.3661C15.8006 15.3492 15.7725 15.331 15.7456 15.3117C15.0389 16.1105 14.0806 16.6816 12.9948 16.9009C12.998 16.9335 12.9997 16.9666 12.9997 17L12.9997 18.4648L15.5544 20.1679C16.0139 20.4743 16.1381 21.0952 15.8317 21.5547C15.5254 22.0142 14.9045 22.1384 14.445 21.8321L12.9997 20.8685V22C12.9997 22.5523 12.552 23 11.9997 23C11.4474 23 10.9997 22.5523 10.9997 22V20.8685L9.55437 21.832C9.09484 22.1384 8.47397 22.0142 8.16762 21.5547C7.86127 21.0952 7.98544 20.4743 8.44497 20.1679L10.9997 18.4648V17C10.9997 16.9666 11.0013 16.9336 11.0045 16.901C9.91866 16.6817 8.9603 16.1106 8.25353 15.3118C8.22668 15.331 8.19863 15.3492 8.1694 15.366L6.90083 16.0985L6.70323 19.1625C6.66768 19.7136 6.19208 20.1316 5.64094 20.096C5.0898 20.0605 4.67183 19.5849 4.70737 19.0337L4.81917 17.3003L3.83928 17.866C3.36098 18.1422 2.74939 17.9783 2.47325 17.5C2.19711 17.0217 2.36098 16.4101 2.83928 16.134L3.81917 15.5683L2.26207 14.7984C1.767 14.5536 1.5641 13.9538 1.80889 13.4587C2.05368 12.9636 2.65345 12.7607 3.14853 13.0055L5.90083 14.3664L7.1694 13.634C7.19824 13.6173 7.22757 13.6023 7.25728 13.5888C7.09012 13.0897 6.99956 12.5554 6.99956 12C6.99956 11.4446 7.09012 10.9104 7.25726 10.4112C7.22756 10.3978 7.19824 10.3827 7.1694 10.3661L5.90083 9.63366L3.14853 10.9945C2.65345 11.2393 2.05368 11.0364 1.80889 10.5413C1.5641 10.0463 1.767 9.44649 2.26207 9.20171L3.81917 8.43181L2.83928 7.86607C2.36098 7.58992 2.19711 6.97833 2.47325 6.50004ZM11.9996 9C10.3427 9 8.99956 10.3431 8.99956 12C8.99956 13.6569 10.3427 15 11.9996 15C13.6564 15 14.9996 13.6569 14.9996 12C14.9996 10.3431 13.6564 9 11.9996 9Z" fill="#5896EB"/>
</g>
<defs>
<clipPath id="clip0_894_10549">
<rect width="24" height="24" fill="white"/>
</clipPath>
</defs>
</svg>
