<svg width="32" height="35" viewBox="0 0 32 35" fill="none" xmlns="http://www.w3.org/2000/svg">
<path d="M16.4997 1.1979C17.178 -0.350402 19.3521 -0.411204 20.1158 1.09676L21.8711 4.56234C22.3221 5.4527 23.3604 5.87432 24.3044 5.55039L29.2514 3.85292C31.0016 3.25234 32.5587 5.14629 31.631 6.74735L28.3359 12.434C27.7431 13.457 28.1624 14.7682 29.2388 15.2575L30.6665 15.9064C31.9959 16.5107 32.2505 18.2899 31.1438 19.2427L30.1966 20.0583C29.4694 20.6845 29.2894 21.739 29.7679 22.5709L31.1288 24.9376C32.0141 26.477 30.6034 28.3207 28.8861 27.8687L24.4711 26.7069C23.4513 26.4385 22.3983 27.0082 22.0648 28.0086L20.5088 32.6766C19.9184 34.4477 17.4384 34.5158 16.7517 32.7798L15.5703 29.7936C15.1011 28.6076 13.6566 28.1579 12.5971 28.868L9.85233 30.7075C8.17192 31.8338 6.07296 30.0387 6.92484 28.2039L7.74518 26.437C8.08383 25.7076 7.73211 24.8441 6.98021 24.5589L6.7551 24.4735C5.94394 24.1659 5.70229 23.1348 6.29225 22.4987C6.88966 21.8547 6.63316 20.8095 5.80545 20.5152L1.32947 18.9234C-0.388952 18.3123 -0.45964 15.9083 1.21991 15.1973L5.79728 13.2595C6.78104 12.8431 7.26384 11.727 6.89376 10.7249L6.51371 9.6958C5.86576 7.94123 7.76604 6.33664 9.38725 7.26939L11.0095 8.20274C12.0417 8.7966 13.3609 8.36249 13.8388 7.27173L16.4997 1.1979Z" fill="#F4AC83"/>
</svg>
