<svg width="33" height="32" viewBox="0 0 33 32" fill="none" xmlns="http://www.w3.org/2000/svg">
<path d="M12.5823 0.851384C14.9308 -0.438312 17.8138 -0.250845 19.9755 1.33213C20.8016 1.93701 21.7519 2.35036 22.7576 2.54218L23.233 2.63285C26.147 3.18865 28.5096 5.3197 29.362 8.16112C29.579 8.88441 29.8979 9.57313 30.309 10.2065L31.1045 11.432C32.7602 13.9826 32.4783 17.3305 30.4195 19.5683L29.8578 20.1788C29.0879 21.0157 28.6606 22.1113 28.6606 23.2484C28.6606 25.6547 26.7808 27.6417 24.3783 27.7752L23.9108 27.8012C22.9813 27.8528 22.0844 28.1614 21.32 28.6926L20.0276 29.5907C17.3896 31.4239 13.9595 31.6648 11.0912 30.2184L10.3785 29.859C9.6247 29.4789 8.78283 29.2809 7.93862 29.2809C4.82153 29.2809 2.32208 26.6267 2.56221 23.5189C2.65292 22.345 2.35383 21.174 1.71132 20.1873L0.795236 18.7806C-0.373471 16.9859 -0.243962 14.6407 1.11525 12.9857C1.76666 12.1925 2.15308 11.215 2.22019 10.1908L2.31679 8.71644C2.53804 5.3396 5.20317 2.63634 8.57653 2.36714C9.5372 2.29048 10.4707 2.01098 11.3154 1.5471L12.5823 0.851384Z" fill="#AFE5C4"/>
</svg>
