<svg width="24" height="24" viewBox="0 0 24 24" fill="none" xmlns="http://www.w3.org/2000/svg">
<path fill-rule="evenodd" clip-rule="evenodd" d="M20.0503 5.25301L9.32295 15.9803C9.85566 17.0954 9.66019 18.4715 8.73656 19.3951C7.56498 20.5667 5.66549 20.5667 4.49391 19.3951C3.32234 18.2236 3.32234 16.3241 4.49391 15.1525C5.41755 14.2289 6.79361 14.0334 7.90874 14.5661L10.0789 12.3959C10.0765 12.3935 10.0741 12.3911 10.0718 12.3887L8.67908 10.9673L7.3222 12.3242C5.81986 12.1106 4.23765 12.5803 3.0797 13.7383C1.12708 15.6909 1.12708 18.8567 3.0797 20.8094C5.03232 22.762 8.19815 22.762 10.1508 20.8094C11.3087 19.6514 11.7785 18.0692 11.5648 16.5669L21.4645 6.66722C22.636 5.49565 22.636 3.59615 21.4645 2.42458C20.2929 1.253 18.3934 1.25301 17.2218 2.42458L15.8076 3.83879C15.81 3.84121 15.8125 3.84365 15.8149 3.8461L17.2075 5.26737L18.636 3.83879C19.0266 3.44827 19.6597 3.44827 20.0503 3.83879C20.4408 4.22932 20.4408 4.86248 20.0503 5.25301ZM15.7932 6.68162L14.3503 8.12451L12.9577 6.70325C12.9553 6.7008 12.9529 6.69836 12.9505 6.69594L14.3934 5.25304L15.7861 6.67438C15.7884 6.67681 15.7908 6.67922 15.7932 6.68162ZM11.5362 8.11019L12.9289 9.53153C12.9313 9.53395 12.9337 9.53637 12.9361 9.53876L11.4932 10.9817L10.1006 9.5604C10.0982 9.55794 10.0957 9.55551 10.0933 9.55309L11.5362 8.11019Z" fill="#5896EB"/>
</svg>
