<svg width="24" height="24" viewBox="0 0 24 24" fill="none" xmlns="http://www.w3.org/2000/svg">
<path d="M3 1C2.44772 1 2 1.44772 2 2C2 2.55228 2.44772 3 3 3H3.11628C6.42999 3 9.11628 5.68629 9.11628 9V10.4894C9.11628 10.6353 9.14822 10.7795 9.20986 10.9117L10.4308 13.5319H9.69767C9.14539 13.5319 8.69767 13.9796 8.69767 14.5319V16.7766C8.69767 17.3289 8.24996 17.7766 7.69767 17.7766H5.62791C4.52334 17.7766 3.62791 18.672 3.62791 19.7766V21C3.62791 21.5523 4.07562 22 4.62791 22C5.18019 22 5.62791 21.5523 5.62791 21V19.7766H7.69767C9.35453 19.7766 10.6977 18.4335 10.6977 16.7766V15.5319H12C12.3417 15.5319 12.6597 15.3575 12.8433 15.0693C13.0269 14.7812 13.0507 14.4192 12.9064 14.1095L11.1163 10.2678V9C11.1163 4.58172 7.53455 1 3.11628 1H3Z" fill="#5896EB"/>
<path d="M20.4644 15.364C20.4644 13.2422 19.6215 11.2074 18.1212 9.70711C17.7307 9.31658 17.7307 8.68342 18.1212 8.29289C18.5117 7.90237 19.1449 7.90237 19.5354 8.29289C21.4108 10.1683 22.4644 12.7118 22.4644 15.364C22.4644 18.0161 21.4108 20.5597 19.5354 22.435C19.1449 22.8256 18.5117 22.8256 18.1212 22.435C17.7307 22.0445 17.7307 21.4113 18.1212 21.0208C19.6215 19.5205 20.4644 17.4857 20.4644 15.364Z" fill="#5896EB"/>
<path d="M16.4644 15.3643C16.4644 14.3034 16.0429 13.286 15.2928 12.5358C14.9023 12.1453 14.9023 11.5122 15.2928 11.1216C15.6833 10.7311 16.3165 10.7311 16.707 11.1216C17.8322 12.2468 18.4644 13.773 18.4644 15.3643C18.4644 16.9556 17.8322 18.4817 16.707 19.6069C16.3165 19.9974 15.6833 19.9974 15.2928 19.6069C14.9023 19.2164 14.9023 18.5832 15.2928 18.1927C16.0429 17.4425 16.4644 16.4251 16.4644 15.3643Z" fill="#5896EB"/>
</svg>
